<svg xmlns="http://www.w3.org/2000/svg" xmlns:xlink="http://www.w3.org/1999/xlink" version="1.1" width="1000" height="1000" viewBox="0 0 1000 1000" xml:space="preserve">
<desc>Created with Fabric.js 3.5.0</desc>
<defs>
</defs>
<rect x="0" y="0" width="100%" height="100%" fill="#3D4956"/>
<g transform="matrix(22.3668 0 0 22.796 505.709 277.3224)" id="357099">
<path style="stroke: rgb(210,161,88); stroke-width: 10; stroke-dasharray: none; stroke-linecap: butt; stroke-dashoffset: 0; stroke-linejoin: bevel; stroke-miterlimit: 4; is-custom-font: none; font-file-url: none; fill: rgb(255,206,128); fill-rule: nonzero; opacity: 1;" vector-effect="non-scaling-stroke" transform=" translate(-14.8501, -7.0866)" d="M 15.7583 6.9662 L 15.7584 6.96632 L 26.0845 13.9232 L 28.8663 12.0505 C 28.8663 12.0504 28.8664 12.0504 28.8664 12.0504 C 29.0535 11.9243 29.2134 11.7398 29.3262 11.5119 C 29.6884 10.7804 29.462 9.8601 28.8663 9.45868 L 15.4792 0.439564 C 15.1033 0.186731 14.6467 0.186731 14.2708 0.439564 L 0.883691 9.45868 C 0.883684 9.45869 0.883677 9.45869 0.883671 9.45869 C 0.696524 9.58481 0.536631 9.76929 0.423778 9.99724 L 0.199732 9.88632 L 0.423778 9.99724 C 0.0616425 10.7287 0.287981 11.6489 0.883598 12.0504 C 0.88363 12.0504 0.883661 12.0504 0.883692 12.0505 L 3.6655 13.9232 L 13.9916 6.96632 L 13.9918 6.9662 C 14.5364 6.59989 15.2136 6.59989 15.7583 6.9662 Z" stroke-linecap="round"/>
</g>
<g transform="matrix(22.7776 0 0 22.796 500.0007 722.6772)" id="366937">
<path style="stroke: rgb(209,108,58); stroke-width: 10; stroke-dasharray: none; stroke-linecap: butt; stroke-dashoffset: 0; stroke-linejoin: miter; stroke-miterlimit: 4; is-custom-font: none; font-file-url: none; fill: rgb(231,159,110); fill-rule: nonzero; opacity: 1;" vector-effect="non-scaling-stroke" transform=" translate(-14.8636, -7.8644)" d="M 15.7582 7.98473 L 15.7584 7.98461 L 26.0845 1.02773 L 28.8663 2.90047 C 28.8663 2.90049 28.8664 2.90051 28.8664 2.90054 C 29.0535 3.02665 29.2134 3.21112 29.3262 3.43903 C 29.6884 4.17053 29.462 5.09083 28.8663 5.49225 L 15.4792 14.5114 C 15.1033 14.7642 14.6467 14.7642 14.2708 14.5114 L 0.883691 5.49225 C 0.883684 5.49224 0.883677 5.49224 0.883671 5.49223 C 0.696525 5.36612 0.536631 5.18163 0.423778 4.95369 L 0.226884 5.05117 L 0.423778 4.95368 C 0.0616425 4.22223 0.287981 3.30199 0.883598 2.90054 C 0.88363 2.90051 0.883661 2.90049 0.883692 2.90047 L 3.6655 1.02773 L 13.9916 7.98461 L 13.9918 7.98473 C 14.5364 8.35102 15.2136 8.35102 15.7582 7.98473 Z" stroke-linecap="round"/>
</g>
<g transform="matrix(22.5611 0 0 23.0376 500.8733 496.0079)" id="754363">
<path style="stroke: rgb(130,77,59); stroke-width: 11; stroke-dasharray: none; stroke-linecap: butt; stroke-dashoffset: 0; stroke-linejoin: miter; stroke-miterlimit: 4; is-custom-font: none; font-file-url: none; fill: rgb(231,159,110); fill-rule: nonzero; opacity: 1;" vector-effect="non-scaling-stroke" transform=" translate(-14.875, -10.9755)" d="M 14.2707 21.2866 C 14.4576 21.4122 14.6658 21.4762 14.8749 21.4763 L 14.2707 21.2866 Z M 14.2707 21.2866 L 0.883692 12.2675 C 0.883685 12.2675 0.883678 12.2675 0.883671 12.2675 C 0.287999 11.8661 0.0616279 10.9458 0.423778 10.2143 C 0.536635 9.98636 0.696536 9.80187 0.883691 9.67575 L 14.2704 0.663667 C 14.2704 0.663624 14.2705 0.663581 14.2706 0.663539 C 14.6469 0.411633 15.1031 0.411633 15.4794 0.663539 C 15.4795 0.663581 15.4796 0.663624 15.4796 0.663667 L 28.8663 9.67575 C 28.8663 9.67578 28.8664 9.6758 28.8664 9.67582 C 29.462 10.0773 29.6884 10.9975 29.3262 11.729 C 29.2134 11.9569 29.0535 12.1414 28.8663 12.2675 C 28.8663 12.2675 28.8663 12.2675 28.8663 12.2675 L 15.4793 21.2866 C 15.2924 21.4122 15.0842 21.4762 14.8751 21.4763 L 14.2707 21.2866 Z" stroke-linecap="round"/>
</g>
</svg>